<?xml version="1.0" encoding="UTF-8" standalone="no"?>
<svg
   xmlns:dc="http://purl.org/dc/elements/1.1/"
   xmlns:cc="http://creativecommons.org/ns#"
   xmlns:rdf="http://www.w3.org/1999/02/22-rdf-syntax-ns#"
   xmlns:svg="http://www.w3.org/2000/svg"
   xmlns="http://www.w3.org/2000/svg"
   xmlns:sodipodi="http://sodipodi.sourceforge.net/DTD/sodipodi-0.dtd"
   xmlns:inkscape="http://www.inkscape.org/namespaces/inkscape"
   id="Layer_1"
   viewBox="0 0 245 240"
   version="1.1"
   sodipodi:docname="Discord-RPC.svg"
   inkscape:version="0.92.3 (2405546, 2018-03-11)">
  <metadata
     id="metadata13">
    <rdf:RDF>
      <cc:Work
         rdf:about="">
        <dc:format>image/svg+xml</dc:format>
        <dc:type
           rdf:resource="http://purl.org/dc/dcmitype/StillImage" />
        <dc:title></dc:title>
      </cc:Work>
    </rdf:RDF>
  </metadata>
  <defs
     id="defs11" />
  <sodipodi:namedview
     pagecolor="#ffffff"
     bordercolor="#666666"
     borderopacity="1"
     objecttolerance="10"
     gridtolerance="10"
     guidetolerance="10"
     inkscape:pageopacity="0"
     inkscape:pageshadow="2"
     inkscape:window-width="1920"
     inkscape:window-height="1017"
     id="namedview9"
     showgrid="false"
     inkscape:pagecheckerboard="true"
     inkscape:zoom="2.7812867"
     inkscape:cx="183.81395"
     inkscape:cy="81.679408"
     inkscape:window-x="-8"
     inkscape:window-y="-8"
     inkscape:window-maximized="1"
     inkscape:current-layer="Layer_1" />
  <style
     id="style2">.st0{fill:#FFFFFF;}</style>
  <path
     class="st0"
     d="M104.4 103.9c-5.7 0-10.2 5-10.2 11.1s4.6 11.1 10.2 11.1c5.7 0 10.2-5 10.2-11.1.1-6.1-4.5-11.1-10.2-11.1zM140.9 103.9c-5.7 0-10.2 5-10.2 11.1s4.6 11.1 10.2 11.1c5.7 0 10.2-5 10.2-11.1s-4.5-11.1-10.2-11.1z"
     id="path4" />
  <path
     class="activityIconForeground-qYIPPg"
     d="m 198.10693,199.31494 h -30.46256 v -7.61563 h 30.46256 z m 15.23129,-15.23128 h -45.69385 v -7.61565 h 45.69385 z m 0,-15.23128 h -45.69385 v -7.61565 h 45.69385 z m 6.76946,-22.84694 H 160.8749 c -4.6963,0 -8.46182,3.76552 -8.46182,8.46184 v 59.23276 c 0,4.67334 3.7885,8.46184 8.46182,8.46184 h 59.23278 c 4.67334,0 8.46182,-3.7885 8.46182,-8.46184 v -59.23276 c 0,-4.69632 -3.80781,-8.46184 -8.46182,-8.46184 z"
     id="path8"
     inkscape:connector-curvature="0"
     style="fill:#ffffff;fill-opacity:1;stroke-width:7.61564302" />
  <path
     style="fill:#ffffff"
     d="M 55.5,20 C 44.2,20 35,29.199609 35,40.599609 V 175.80078 c 0,11.4 9.2,20.59961 20.5,20.59961 h 89.12695 5.98828 v -43.6875 c 0,-0.73831 0.1004,-1.44906 0.26954,-2.13281 -0.0148,-0.0177 -1.98696,-2.3712 -4.23438,-5.14453 -0.77611,-0.95772 -1.58169,-1.96285 -2.34961,-2.93555 13.1,-3.7 18.09961,-11.90039 18.09961,-11.90039 -4.1,2.7 -8,4.60039 -11.5,5.90039 -5,2.1 -9.8,3.50078 -14.5,4.30078 -9.6,1.8 -18.40039,1.29844 -25.90039,-0.10156 -5.7,-1.1 -10.599219,-2.69883 -14.699219,-4.29883 C 93.500781,135.50039 91,134.4 88.5,133 c -0.3,-0.2 -0.600391,-0.3 -0.900391,-0.5 -0.2,-0.1 -0.30039,-0.20078 -0.40039,-0.30078 -1.8,-1 -2.798828,-1.69922 -2.798828,-1.69922 0,0 4.8,8.00078 17.499999,11.80078 -2.999999,3.8 -6.701171,8.29883 -6.701171,8.29883 -22.1,-0.7 -30.5,-15.19922 -30.5,-15.19922 0,-32.2 14.40039,-58.300781 14.40039,-58.300781 14.4,-10.8 28.099611,-10.5 28.099611,-10.5 l 1,1.201172 c -18.000001,5.2 -26.298829,13.09961 -26.298829,13.09961 0,0 2.20039,-1.200391 5.90039,-2.900391 C 98.500781,73.3 107,71.999219 110.5,71.699219 c 0.6,-0.1 1.09922,-0.199219 1.69922,-0.199219 6.1,-0.8 13.00117,-0.999219 20.20117,-0.199219 9.5,1.1 19.69961,3.89961 30.09961,9.59961 0,0 -7.90039,-7.501172 -24.90039,-12.701172 L 139,66.599609 c 0,0 13.69961,-0.3 28.09961,10.5 0,0 14.40039,26.100781 14.40039,58.300781 0,0 -2.61793,4.44448 -8.69531,8.53125 H 210 V 142.83203 40.599609 C 210,29.199609 200.8,20 189.5,20 Z"
     id="path6"
     inkscape:connector-curvature="0"
     sodipodi:nodetypes="ssssccscccccccccccccccccccccccccccccccsss" />
</svg>
